<?xml version="1.0" encoding="UTF-8" standalone="no"?>
<!-- Created with Inkscape (http://www.inkscape.org/) -->

<svg
   width="64"
   height="64"
   viewBox="0 0 16.933333 16.933333"
   version="1.1"
   id="svg5"
   inkscape:export-filename="Wall.svg"
   inkscape:export-xdpi="96"
   inkscape:export-ydpi="96"
   inkscape:version="1.2.1 (9c6d41e410, 2022-07-14)"
   sodipodi:docname="Player.svg"
   xmlns:inkscape="http://www.inkscape.org/namespaces/inkscape"
   xmlns:sodipodi="http://sodipodi.sourceforge.net/DTD/sodipodi-0.dtd"
   xmlns="http://www.w3.org/2000/svg"
   xmlns:svg="http://www.w3.org/2000/svg">
  <sodipodi:namedview
     id="namedview7"
     pagecolor="#ffffff"
     bordercolor="#000000"
     borderopacity="0.25"
     inkscape:showpageshadow="2"
     inkscape:pageopacity="0.0"
     inkscape:pagecheckerboard="true"
     inkscape:deskcolor="#d1d1d1"
     inkscape:document-units="px"
     showgrid="true"
     inkscape:zoom="8.6274964"
     inkscape:cx="45.088399"
     inkscape:cy="22.949879"
     inkscape:window-width="1920"
     inkscape:window-height="1012"
     inkscape:window-x="0"
     inkscape:window-y="0"
     inkscape:window-maximized="1"
     inkscape:current-layer="layer1">
    <inkscape:grid
       type="xygrid"
       id="grid132"
       empspacing="4" />
  </sodipodi:namedview>
  <defs
     id="defs2">
    <linearGradient
       id="linearGradient3639"
       inkscape:swatch="solid">
      <stop
         style="stop-color:#5599ff;stop-opacity:1;"
         offset="0"
         id="stop3637" />
    </linearGradient>
    <linearGradient
       id="linearGradient3084"
       inkscape:swatch="solid">
      <stop
         style="stop-color:#5599ff;stop-opacity:1;"
         offset="0"
         id="stop3082" />
    </linearGradient>
  </defs>
  <g
     inkscape:label="Layer 1"
     inkscape:groupmode="layer"
     id="layer1">
    <ellipse
       style="fill:#ffcc00;stroke-width:0.366618;stroke-linecap:round;stroke-linejoin:round"
       id="path299"
       cx="8.4666662"
       cy="2.6458333"
       rx="4.2333331"
       ry="1.5874999" />
    <path
       style="fill:#ff0000;stroke:#ffcc00;stroke-width:1.5875;stroke-linecap:round;stroke-linejoin:round;stroke-dasharray:none"
       d="M 5.2916667,5.8208334 V 10.054167"
       id="path1282" />
    <path
       style="fill:#ff0000;stroke:#ffcc00;stroke-width:1.5875;stroke-linecap:round;stroke-linejoin:round;stroke-dasharray:none"
       d="M 11.641666,5.8208334 V 10.054167"
       id="path1284" />
    <path
       style="fill:none;stroke:#ffcc00;stroke-width:1.58749997;stroke-linecap:round;stroke-linejoin:round;stroke-dasharray:none"
       d="m 8.4666665,3.1749999 v 3.175"
       id="path416" />
    <path
       style="fill:#ff0000;stroke:none;stroke-width:0.529167;stroke-linecap:round;stroke-linejoin:round"
       d="m 4.2333335,6.8791665 c 0,0 0,-2.1166667 1.0583333,-2.1166667 1.0583333,0 6.3500002,0 6.3500002,0 0,0 1.058333,0 1.058333,2.1166667 0,2.1166664 0,0 0,0 H 10.583333 V 10.054167 H 6.3500001 V 6.8791665 Z"
       id="path600" />
    <g
       id="g1452">
      <circle
         style="fill:#000000;stroke:none;stroke-width:1.5875;stroke-linecap:round;stroke-linejoin:round;stroke-dasharray:none"
         id="path1394"
         cx="6.8791666"
         cy="2.1166666"
         r="0.52916664" />
      <circle
         style="fill:#ffffff;stroke:none;stroke-width:1.5875;stroke-linecap:round;stroke-linejoin:round;stroke-dasharray:none"
         id="path1396"
         cx="6.8791666"
         cy="2.1166666"
         r="0.26458332" />
    </g>
    <g
       id="g1458"
       transform="translate(3.1749999)">
      <circle
         style="fill:#000000;stroke:none;stroke-width:1.5875;stroke-linecap:round;stroke-linejoin:round;stroke-dasharray:none"
         id="circle1454"
         cx="6.8791666"
         cy="2.1166666"
         r="0.52916664" />
      <circle
         style="fill:#ffffff;stroke:none;stroke-width:1.5875;stroke-linecap:round;stroke-linejoin:round;stroke-dasharray:none"
         id="circle1456"
         cx="6.8791666"
         cy="2.1166666"
         r="0.26458332" />
    </g>
    <path
       id="path1523"
       style="fill:#000080;stroke:none;stroke-width:1.5875;stroke-linecap:round;stroke-linejoin:round;stroke-dasharray:none"
       d="M 6.283854 10.31875 L 5.2916666 14.2875 L 7.4083332 14.2875 L 7.9374998 12.170833 L 8.9958332 12.170833 L 9.5249998 14.2875 L 11.641666 14.2875 L 10.649479 10.31875 L 6.283854 10.31875 z " />
    <path
       id="path1845"
       style="fill:#000000;stroke:none;stroke-width:1.5875;stroke-linecap:round;stroke-linejoin:round;stroke-dasharray:none"
       d="M 6.3499999 10.054166 L 6.283854 10.31875 L 10.649479 10.31875 L 10.583333 10.054166 L 6.3499999 10.054166 z " />
    <path
       style="fill:#000000;stroke:none;stroke-width:1.5875;stroke-linecap:round;stroke-linejoin:round;stroke-dasharray:none"
       d="m 5.2916666,14.2875 c 0,0 -2.1166666,0.529166 -2.1166666,1.058333 0,0.529167 1.0583333,0.529167 1.0583333,0.529167 h 2.6458333 c 0,0 0.5291666,0 0.5291666,-0.264584 0,-0.264583 0,-1.322916 0,-1.322916 z"
       id="path1714" />
    <path
       style="fill:#000000;stroke:none;stroke-width:1.5875;stroke-linecap:round;stroke-linejoin:round;stroke-dasharray:none"
       d="m 11.641666,14.2875 c 0,0 2.116667,0.529166 2.116667,1.058333 C 13.758333,15.875 12.7,15.875 12.7,15.875 h -2.645834 c 0,0 -0.5291662,0 -0.5291662,-0.264584 0,-0.264583 0,-1.322916 0,-1.322916 z"
       id="path1779" />
    <path
       style="fill:#b3b3b3;stroke:#000000;stroke-width:0.26458333;stroke-linecap:round;stroke-linejoin:round;stroke-dasharray:none"
       d="m 8.2020832,9.7895832 c 0,0 -0.2645833,0 -0.2645833,0.2645838 0,0.264583 0,0.264583 0,0.264583 0,0 0,0.264583 0.2645833,0.264583 0.2645834,0 0.5291667,0 0.5291667,0 0,0 0.2645833,0 0.2645833,-0.264583 0,-0.264583 0,-0.264583 0,-0.264583 0,0 0,-0.2645838 -0.2645833,-0.2645838 -0.2645833,0 -0.5291667,0 -0.5291667,0 z"
       id="path1848" />
  </g>
</svg>
